<svg width="335" height="567" viewBox="0 0 335 567" fill="none" xmlns="http://www.w3.org/2000/svg">
<g clip-path="url(#clip0_495_5897)">
<path fill-rule="evenodd" clip-rule="evenodd" d="M51.6966 516.997C45.986 516.997 41.3571 512.52 41.3571 506.997C41.3571 501.474 45.986 496.997 51.6966 496.997C57.4071 496.997 62.0361 501.474 62.0361 506.997C67.7466 506.997 72.3756 511.474 72.3756 516.997C72.3756 522.52 67.7466 526.997 62.0361 526.997C56.3256 526.997 51.6966 522.52 51.6966 516.997ZM10.3385 556.997C4.62802 556.997 -0.000976562 552.52 -0.000976562 546.997C-0.000976562 541.474 4.62802 536.997 10.3385 536.997C16.049 536.997 20.678 541.474 20.678 546.997C26.3885 546.997 31.0175 551.474 31.0175 556.997C31.0175 562.52 26.3885 566.997 20.678 566.997C14.9675 566.997 10.3385 562.52 10.3385 556.997ZM18.6101 546.997C18.6101 542.579 14.9065 538.997 10.3385 538.997C5.77054 538.997 2.06692 542.579 2.06692 546.997C2.06692 551.415 5.77054 554.997 10.3385 554.997C14.9065 554.997 18.6101 551.415 18.6101 546.997ZM59.9682 506.997C59.9682 502.579 56.2646 498.997 51.6966 498.997C47.1286 498.997 43.425 502.579 43.425 506.997C43.425 511.415 47.1286 514.997 51.6966 514.997C56.2646 514.997 59.9682 511.415 59.9682 506.997Z" fill="black"/>
<path fill-rule="evenodd" clip-rule="evenodd" d="M51.6966 434.997C45.986 434.997 41.3571 430.52 41.3571 424.997C41.3571 419.474 45.986 414.997 51.6966 414.997C57.4071 414.997 62.0361 419.474 62.0361 424.997C67.7466 424.997 72.3756 429.474 72.3756 434.997C72.3756 440.52 67.7466 444.997 62.0361 444.997C56.3256 444.997 51.6966 440.52 51.6966 434.997ZM10.3385 474.997C4.62802 474.997 -0.000976562 470.52 -0.000976562 464.997C-0.000976562 459.474 4.62802 454.997 10.3385 454.997C16.049 454.997 20.678 459.474 20.678 464.997C26.3885 464.997 31.0175 469.474 31.0175 474.997C31.0175 480.52 26.3885 484.997 20.678 484.997C14.9675 484.997 10.3385 480.52 10.3385 474.997ZM18.6101 464.997C18.6101 460.579 14.9065 456.997 10.3385 456.997C5.77054 456.997 2.06692 460.579 2.06692 464.997C2.06692 469.415 5.77054 472.997 10.3385 472.997C14.9065 472.997 18.6101 469.415 18.6101 464.997ZM59.9682 424.997C59.9682 420.579 56.2646 416.997 51.6966 416.997C47.1286 416.997 43.425 420.579 43.425 424.997C43.425 429.415 47.1286 432.997 51.6966 432.997C56.2646 432.997 59.9682 429.415 59.9682 424.997Z" fill="black"/>
<path fill-rule="evenodd" clip-rule="evenodd" d="M51.6966 352.997C45.986 352.997 41.3571 348.52 41.3571 342.997C41.3571 337.474 45.986 332.997 51.6966 332.997C57.4071 332.997 62.0361 337.474 62.0361 342.997C67.7466 342.997 72.3756 347.474 72.3756 352.997C72.3756 358.52 67.7466 362.997 62.0361 362.997C56.3256 362.997 51.6966 358.52 51.6966 352.997ZM10.3385 392.997C4.62802 392.997 -0.000976562 388.52 -0.000976562 382.997C-0.000976562 377.474 4.62802 372.997 10.3385 372.997C16.049 372.997 20.678 377.474 20.678 382.997C26.3885 382.997 31.0175 387.474 31.0175 392.997C31.0175 398.52 26.3885 402.997 20.678 402.997C14.9675 402.997 10.3385 398.52 10.3385 392.997ZM18.6101 382.997C18.6101 378.579 14.9065 374.997 10.3385 374.997C5.77054 374.997 2.06692 378.579 2.06692 382.997C2.06692 387.415 5.77054 390.997 10.3385 390.997C14.9065 390.997 18.6101 387.415 18.6101 382.997ZM59.9682 342.997C59.9682 338.579 56.2646 334.997 51.6966 334.997C47.1286 334.997 43.425 338.579 43.425 342.997C43.425 347.415 47.1286 350.997 51.6966 350.997C56.2646 350.997 59.9682 347.415 59.9682 342.997Z" fill="black"/>
<path fill-rule="evenodd" clip-rule="evenodd" d="M51.6966 270.997C45.986 270.997 41.3571 266.52 41.3571 260.997C41.3571 255.474 45.986 250.997 51.6966 250.997C57.4071 250.997 62.0361 255.474 62.0361 260.997C67.7466 260.997 72.3756 265.474 72.3756 270.997C72.3756 276.52 67.7466 280.997 62.0361 280.997C56.3256 280.997 51.6966 276.52 51.6966 270.997ZM10.3385 310.997C4.62802 310.997 -0.000976562 306.52 -0.000976562 300.997C-0.000976562 295.474 4.62802 290.997 10.3385 290.997C16.049 290.997 20.678 295.474 20.678 300.997C26.3885 300.997 31.0175 305.474 31.0175 310.997C31.0175 316.52 26.3885 320.997 20.678 320.997C14.9675 320.997 10.3385 316.52 10.3385 310.997ZM18.6101 300.997C18.6101 296.579 14.9065 292.997 10.3385 292.997C5.77054 292.997 2.06692 296.579 2.06692 300.997C2.06692 305.415 5.77054 308.997 10.3385 308.997C14.9065 308.997 18.6101 305.415 18.6101 300.997ZM59.9682 260.997C59.9682 256.579 56.2646 252.997 51.6966 252.997C47.1286 252.997 43.425 256.579 43.425 260.997C43.425 265.415 47.1286 268.997 51.6966 268.997C56.2646 268.997 59.9682 265.415 59.9682 260.997Z" fill="black"/>
<path fill-rule="evenodd" clip-rule="evenodd" d="M51.6966 188.997C45.986 188.997 41.3571 184.52 41.3571 178.997C41.3571 173.474 45.986 168.997 51.6966 168.997C57.4071 168.997 62.0361 173.474 62.0361 178.997C67.7466 178.997 72.3756 183.474 72.3756 188.997C72.3756 194.52 67.7466 198.997 62.0361 198.997C56.3256 198.997 51.6966 194.52 51.6966 188.997ZM10.3385 228.997C4.62802 228.997 -0.000976562 224.52 -0.000976562 218.997C-0.000976562 213.474 4.62802 208.997 10.3385 208.997C16.049 208.997 20.678 213.474 20.678 218.997C26.3885 218.997 31.0175 223.474 31.0175 228.997C31.0175 234.52 26.3885 238.997 20.678 238.997C14.9675 238.997 10.3385 234.52 10.3385 228.997ZM18.6101 218.997C18.6101 214.579 14.9065 210.997 10.3385 210.997C5.77054 210.997 2.06692 214.579 2.06692 218.997C2.06692 223.415 5.77054 226.997 10.3385 226.997C14.9065 226.997 18.6101 223.415 18.6101 218.997ZM59.9682 178.997C59.9682 174.579 56.2646 170.997 51.6966 170.997C47.1286 170.997 43.425 174.579 43.425 178.997C43.425 183.415 47.1286 186.997 51.6966 186.997C56.2646 186.997 59.9682 183.415 59.9682 178.997Z" fill="black"/>
<path fill-rule="evenodd" clip-rule="evenodd" d="M51.6966 106.997C45.986 106.997 41.3571 102.52 41.3571 96.9966C41.3571 91.4736 45.986 86.9966 51.6966 86.9966C57.4071 86.9966 62.0361 91.4736 62.0361 96.9966C67.7466 96.9966 72.3756 101.474 72.3756 106.997C72.3756 112.52 67.7466 116.997 62.0361 116.997C56.3256 116.997 51.6966 112.52 51.6966 106.997ZM10.3385 146.997C4.62802 146.997 -0.000976562 142.52 -0.000976562 136.997C-0.000976562 131.474 4.62802 126.997 10.3385 126.997C16.049 126.997 20.678 131.474 20.678 136.997C26.3885 136.997 31.0175 141.474 31.0175 146.997C31.0175 152.52 26.3885 156.997 20.678 156.997C14.9675 156.997 10.3385 152.52 10.3385 146.997ZM18.6101 136.997C18.6101 132.579 14.9065 128.997 10.3385 128.997C5.77054 128.997 2.06692 132.579 2.06692 136.997C2.06692 141.415 5.77054 144.997 10.3385 144.997C14.9065 144.997 18.6101 141.415 18.6101 136.997ZM59.9682 96.9966C59.9682 92.5786 56.2646 88.9966 51.6966 88.9966C47.1286 88.9966 43.425 92.5786 43.425 96.9966C43.425 101.415 47.1286 104.997 51.6966 104.997C56.2646 104.997 59.9682 101.415 59.9682 96.9966Z" fill="black"/>
<path fill-rule="evenodd" clip-rule="evenodd" d="M136.481 516.997C130.77 516.997 126.141 512.52 126.141 506.997C126.141 501.474 130.77 496.997 136.481 496.997C142.191 496.997 146.82 501.474 146.82 506.997C152.531 506.997 157.16 511.474 157.16 516.997C157.16 522.52 152.531 526.997 146.82 526.997C141.11 526.997 136.481 522.52 136.481 516.997ZM95.1227 556.997C89.4122 556.997 84.7832 552.52 84.7832 546.997C84.7832 541.474 89.4122 536.997 95.1227 536.997C100.833 536.997 105.462 541.474 105.462 546.997C111.173 546.997 115.802 551.474 115.802 556.997C115.802 562.52 111.173 566.997 105.462 566.997C99.7517 566.997 95.1227 562.52 95.1227 556.997ZM103.394 546.997C103.394 542.579 99.6907 538.997 95.1227 538.997C90.5547 538.997 86.8511 542.579 86.8511 546.997C86.8511 551.415 90.5547 554.997 95.1227 554.997C99.6907 554.997 103.394 551.415 103.394 546.997ZM144.752 506.997C144.752 502.579 141.049 498.997 136.481 498.997C131.913 498.997 128.209 502.579 128.209 506.997C128.209 511.415 131.913 514.997 136.481 514.997C141.049 514.997 144.752 511.415 144.752 506.997Z" fill="black"/>
<path fill-rule="evenodd" clip-rule="evenodd" d="M136.481 434.997C130.77 434.997 126.141 430.52 126.141 424.997C126.141 419.474 130.77 414.997 136.481 414.997C142.191 414.997 146.82 419.474 146.82 424.997C152.531 424.997 157.16 429.474 157.16 434.997C157.16 440.52 152.531 444.997 146.82 444.997C141.11 444.997 136.481 440.52 136.481 434.997ZM95.1227 474.997C89.4122 474.997 84.7832 470.52 84.7832 464.997C84.7832 459.474 89.4122 454.997 95.1227 454.997C100.833 454.997 105.462 459.474 105.462 464.997C111.173 464.997 115.802 469.474 115.802 474.997C115.802 480.52 111.173 484.997 105.462 484.997C99.7517 484.997 95.1227 480.52 95.1227 474.997ZM103.394 464.997C103.394 460.579 99.6907 456.997 95.1227 456.997C90.5547 456.997 86.8511 460.579 86.8511 464.997C86.8511 469.415 90.5547 472.997 95.1227 472.997C99.6907 472.997 103.394 469.415 103.394 464.997ZM144.752 424.997C144.752 420.579 141.049 416.997 136.481 416.997C131.913 416.997 128.209 420.579 128.209 424.997C128.209 429.415 131.913 432.997 136.481 432.997C141.049 432.997 144.752 429.415 144.752 424.997Z" fill="black"/>
<path fill-rule="evenodd" clip-rule="evenodd" d="M136.481 352.997C130.77 352.997 126.141 348.52 126.141 342.997C126.141 337.474 130.77 332.997 136.481 332.997C142.191 332.997 146.82 337.474 146.82 342.997C152.531 342.997 157.16 347.474 157.16 352.997C157.16 358.52 152.531 362.997 146.82 362.997C141.11 362.997 136.481 358.52 136.481 352.997ZM95.1227 392.997C89.4122 392.997 84.7832 388.52 84.7832 382.997C84.7832 377.474 89.4122 372.997 95.1227 372.997C100.833 372.997 105.462 377.474 105.462 382.997C111.173 382.997 115.802 387.474 115.802 392.997C115.802 398.52 111.173 402.997 105.462 402.997C99.7517 402.997 95.1227 398.52 95.1227 392.997ZM103.394 382.997C103.394 378.579 99.6907 374.997 95.1227 374.997C90.5547 374.997 86.8511 378.579 86.8511 382.997C86.8511 387.415 90.5547 390.997 95.1227 390.997C99.6907 390.997 103.394 387.415 103.394 382.997ZM144.752 342.997C144.752 338.579 141.049 334.997 136.481 334.997C131.913 334.997 128.209 338.579 128.209 342.997C128.209 347.415 131.913 350.997 136.481 350.997C141.049 350.997 144.752 347.415 144.752 342.997Z" fill="black"/>
<path fill-rule="evenodd" clip-rule="evenodd" d="M136.481 270.997C130.77 270.997 126.141 266.52 126.141 260.997C126.141 255.474 130.77 250.997 136.481 250.997C142.191 250.997 146.82 255.474 146.82 260.997C152.531 260.997 157.16 265.474 157.16 270.997C157.16 276.52 152.531 280.997 146.82 280.997C141.11 280.997 136.481 276.52 136.481 270.997ZM95.1227 310.997C89.4122 310.997 84.7832 306.52 84.7832 300.997C84.7832 295.474 89.4122 290.997 95.1227 290.997C100.833 290.997 105.462 295.474 105.462 300.997C111.173 300.997 115.802 305.474 115.802 310.997C115.802 316.52 111.173 320.997 105.462 320.997C99.7517 320.997 95.1227 316.52 95.1227 310.997ZM103.394 300.997C103.394 296.579 99.6907 292.997 95.1227 292.997C90.5547 292.997 86.8511 296.579 86.8511 300.997C86.8511 305.415 90.5547 308.997 95.1227 308.997C99.6907 308.997 103.394 305.415 103.394 300.997ZM144.752 260.997C144.752 256.579 141.049 252.997 136.481 252.997C131.913 252.997 128.209 256.579 128.209 260.997C128.209 265.415 131.913 268.997 136.481 268.997C141.049 268.997 144.752 265.415 144.752 260.997Z" fill="black"/>
<path fill-rule="evenodd" clip-rule="evenodd" d="M136.481 188.997C130.77 188.997 126.141 184.52 126.141 178.997C126.141 173.474 130.77 168.997 136.481 168.997C142.191 168.997 146.82 173.474 146.82 178.997C152.531 178.997 157.16 183.474 157.16 188.997C157.16 194.52 152.531 198.997 146.82 198.997C141.11 198.997 136.481 194.52 136.481 188.997ZM95.1227 228.997C89.4122 228.997 84.7832 224.52 84.7832 218.997C84.7832 213.474 89.4122 208.997 95.1227 208.997C100.833 208.997 105.462 213.474 105.462 218.997C111.173 218.997 115.802 223.474 115.802 228.997C115.802 234.52 111.173 238.997 105.462 238.997C99.7517 238.997 95.1227 234.52 95.1227 228.997ZM103.394 218.997C103.394 214.579 99.6907 210.997 95.1227 210.997C90.5547 210.997 86.8511 214.579 86.8511 218.997C86.8511 223.415 90.5547 226.997 95.1227 226.997C99.6907 226.997 103.394 223.415 103.394 218.997ZM144.752 178.997C144.752 174.579 141.049 170.997 136.481 170.997C131.913 170.997 128.209 174.579 128.209 178.997C128.209 183.415 131.913 186.997 136.481 186.997C141.049 186.997 144.752 183.415 144.752 178.997Z" fill="black"/>
<path fill-rule="evenodd" clip-rule="evenodd" d="M136.481 106.997C130.77 106.997 126.141 102.52 126.141 96.9966C126.141 91.4736 130.77 86.9966 136.481 86.9966C142.191 86.9966 146.82 91.4736 146.82 96.9966C152.531 96.9966 157.16 101.474 157.16 106.997C157.16 112.52 152.531 116.997 146.82 116.997C141.11 116.997 136.481 112.52 136.481 106.997ZM95.1227 146.997C89.4122 146.997 84.7832 142.52 84.7832 136.997C84.7832 131.474 89.4122 126.997 95.1227 126.997C100.833 126.997 105.462 131.474 105.462 136.997C111.173 136.997 115.802 141.474 115.802 146.997C115.802 152.52 111.173 156.997 105.462 156.997C99.7517 156.997 95.1227 152.52 95.1227 146.997ZM103.394 136.997C103.394 132.579 99.6907 128.997 95.1227 128.997C90.5547 128.997 86.8511 132.579 86.8511 136.997C86.8511 141.415 90.5547 144.997 95.1227 144.997C99.6907 144.997 103.394 141.415 103.394 136.997ZM144.752 96.9966C144.752 92.5786 141.049 88.9966 136.481 88.9966C131.913 88.9966 128.209 92.5786 128.209 96.9966C128.209 101.415 131.913 104.997 136.481 104.997C141.049 104.997 144.752 101.415 144.752 96.9966Z" fill="black"/>
<path fill-rule="evenodd" clip-rule="evenodd" d="M221.264 516.997C215.554 516.997 210.925 512.52 210.925 506.997C210.925 501.474 215.554 496.997 221.264 496.997C226.975 496.997 231.604 501.474 231.604 506.997C237.314 506.997 241.943 511.474 241.943 516.997C241.943 522.52 237.314 526.997 231.604 526.997C225.893 526.997 221.264 522.52 221.264 516.997ZM179.906 556.997C174.196 556.997 169.567 552.52 169.567 546.997C169.567 541.474 174.196 536.997 179.906 536.997C185.617 536.997 190.246 541.474 190.246 546.997C195.956 546.997 200.585 551.474 200.585 556.997C200.585 562.52 195.956 566.997 190.246 566.997C184.535 566.997 179.906 562.52 179.906 556.997ZM188.178 546.997C188.178 542.579 184.474 538.997 179.906 538.997C175.338 538.997 171.635 542.579 171.635 546.997C171.635 551.415 175.338 554.997 179.906 554.997C184.474 554.997 188.178 551.415 188.178 546.997ZM229.536 506.997C229.536 502.579 225.832 498.997 221.264 498.997C216.696 498.997 212.993 502.579 212.993 506.997C212.993 511.415 216.696 514.997 221.264 514.997C225.832 514.997 229.536 511.415 229.536 506.997Z" fill="black"/>
<path fill-rule="evenodd" clip-rule="evenodd" d="M221.264 434.997C215.554 434.997 210.925 430.52 210.925 424.997C210.925 419.474 215.554 414.997 221.264 414.997C226.975 414.997 231.604 419.474 231.604 424.997C237.314 424.997 241.943 429.474 241.943 434.997C241.943 440.52 237.314 444.997 231.604 444.997C225.893 444.997 221.264 440.52 221.264 434.997ZM179.906 474.997C174.196 474.997 169.567 470.52 169.567 464.997C169.567 459.474 174.196 454.997 179.906 454.997C185.617 454.997 190.246 459.474 190.246 464.997C195.956 464.997 200.585 469.474 200.585 474.997C200.585 480.52 195.956 484.997 190.246 484.997C184.535 484.997 179.906 480.52 179.906 474.997ZM188.178 464.997C188.178 460.579 184.474 456.997 179.906 456.997C175.338 456.997 171.635 460.579 171.635 464.997C171.635 469.415 175.338 472.997 179.906 472.997C184.474 472.997 188.178 469.415 188.178 464.997ZM229.536 424.997C229.536 420.579 225.832 416.997 221.264 416.997C216.696 416.997 212.993 420.579 212.993 424.997C212.993 429.415 216.696 432.997 221.264 432.997C225.832 432.997 229.536 429.415 229.536 424.997Z" fill="black"/>
<path fill-rule="evenodd" clip-rule="evenodd" d="M221.264 352.997C215.554 352.997 210.925 348.52 210.925 342.997C210.925 337.474 215.554 332.997 221.264 332.997C226.975 332.997 231.604 337.474 231.604 342.997C237.314 342.997 241.943 347.474 241.943 352.997C241.943 358.52 237.314 362.997 231.604 362.997C225.893 362.997 221.264 358.52 221.264 352.997ZM179.906 392.997C174.196 392.997 169.567 388.52 169.567 382.997C169.567 377.474 174.196 372.997 179.906 372.997C185.617 372.997 190.246 377.474 190.246 382.997C195.956 382.997 200.585 387.474 200.585 392.997C200.585 398.52 195.956 402.997 190.246 402.997C184.535 402.997 179.906 398.52 179.906 392.997ZM188.178 382.997C188.178 378.579 184.474 374.997 179.906 374.997C175.338 374.997 171.635 378.579 171.635 382.997C171.635 387.415 175.338 390.997 179.906 390.997C184.474 390.997 188.178 387.415 188.178 382.997ZM229.536 342.997C229.536 338.579 225.832 334.997 221.264 334.997C216.696 334.997 212.993 338.579 212.993 342.997C212.993 347.415 216.696 350.997 221.264 350.997C225.832 350.997 229.536 347.415 229.536 342.997Z" fill="black"/>
<path fill-rule="evenodd" clip-rule="evenodd" d="M221.264 270.997C215.554 270.997 210.925 266.52 210.925 260.997C210.925 255.474 215.554 250.997 221.264 250.997C226.975 250.997 231.604 255.474 231.604 260.997C237.314 260.997 241.943 265.474 241.943 270.997C241.943 276.52 237.314 280.997 231.604 280.997C225.893 280.997 221.264 276.52 221.264 270.997ZM179.906 310.997C174.196 310.997 169.567 306.52 169.567 300.997C169.567 295.474 174.196 290.997 179.906 290.997C185.617 290.997 190.246 295.474 190.246 300.997C195.956 300.997 200.585 305.474 200.585 310.997C200.585 316.52 195.956 320.997 190.246 320.997C184.535 320.997 179.906 316.52 179.906 310.997ZM188.178 300.997C188.178 296.579 184.474 292.997 179.906 292.997C175.338 292.997 171.635 296.579 171.635 300.997C171.635 305.415 175.338 308.997 179.906 308.997C184.474 308.997 188.178 305.415 188.178 300.997ZM229.536 260.997C229.536 256.579 225.832 252.997 221.264 252.997C216.696 252.997 212.993 256.579 212.993 260.997C212.993 265.415 216.696 268.997 221.264 268.997C225.832 268.997 229.536 265.415 229.536 260.997Z" fill="black"/>
<path fill-rule="evenodd" clip-rule="evenodd" d="M221.264 188.997C215.554 188.997 210.925 184.52 210.925 178.997C210.925 173.474 215.554 168.997 221.264 168.997C226.975 168.997 231.604 173.474 231.604 178.997C237.314 178.997 241.943 183.474 241.943 188.997C241.943 194.52 237.314 198.997 231.604 198.997C225.893 198.997 221.264 194.52 221.264 188.997ZM179.906 228.997C174.196 228.997 169.567 224.52 169.567 218.997C169.567 213.474 174.196 208.997 179.906 208.997C185.617 208.997 190.246 213.474 190.246 218.997C195.956 218.997 200.585 223.474 200.585 228.997C200.585 234.52 195.956 238.997 190.246 238.997C184.535 238.997 179.906 234.52 179.906 228.997ZM188.178 218.997C188.178 214.579 184.474 210.997 179.906 210.997C175.338 210.997 171.635 214.579 171.635 218.997C171.635 223.415 175.338 226.997 179.906 226.997C184.474 226.997 188.178 223.415 188.178 218.997ZM229.536 178.997C229.536 174.579 225.832 170.997 221.264 170.997C216.696 170.997 212.993 174.579 212.993 178.997C212.993 183.415 216.696 186.997 221.264 186.997C225.832 186.997 229.536 183.415 229.536 178.997Z" fill="black"/>
<path fill-rule="evenodd" clip-rule="evenodd" d="M221.264 106.997C215.554 106.997 210.925 102.52 210.925 96.9966C210.925 91.4736 215.554 86.9966 221.264 86.9966C226.975 86.9966 231.604 91.4736 231.604 96.9966C237.314 96.9966 241.943 101.474 241.943 106.997C241.943 112.52 237.314 116.997 231.604 116.997C225.893 116.997 221.264 112.52 221.264 106.997ZM179.906 146.997C174.196 146.997 169.567 142.52 169.567 136.997C169.567 131.474 174.196 126.997 179.906 126.997C185.617 126.997 190.246 131.474 190.246 136.997C195.956 136.997 200.585 141.474 200.585 146.997C200.585 152.52 195.956 156.997 190.246 156.997C184.535 156.997 179.906 152.52 179.906 146.997ZM188.178 136.997C188.178 132.579 184.474 128.997 179.906 128.997C175.338 128.997 171.635 132.579 171.635 136.997C171.635 141.415 175.338 144.997 179.906 144.997C184.474 144.997 188.178 141.415 188.178 136.997ZM229.536 96.9966C229.536 92.5786 225.832 88.9966 221.264 88.9966C216.696 88.9966 212.993 92.5786 212.993 96.9966C212.993 101.415 216.696 104.997 221.264 104.997C225.832 104.997 229.536 101.415 229.536 96.9966Z" fill="black"/>
<path fill-rule="evenodd" clip-rule="evenodd" d="M306.049 516.997C300.338 516.997 295.709 512.52 295.709 506.997C295.709 501.474 300.338 496.997 306.049 496.997C311.759 496.997 316.388 501.474 316.388 506.997C322.099 506.997 326.728 511.474 326.728 516.997C326.728 522.52 322.099 526.997 316.388 526.997C310.678 526.997 306.049 522.52 306.049 516.997ZM264.691 556.997C258.98 556.997 254.351 552.52 254.351 546.997C254.351 541.474 258.98 536.997 264.691 536.997C270.401 536.997 275.03 541.474 275.03 546.997C280.741 546.997 285.37 551.474 285.37 556.997C285.37 562.52 280.741 566.997 275.03 566.997C269.32 566.997 264.691 562.52 264.691 556.997ZM272.962 546.997C272.962 542.579 269.259 538.997 264.691 538.997C260.123 538.997 256.419 542.579 256.419 546.997C256.419 551.415 260.123 554.997 264.691 554.997C269.259 554.997 272.962 551.415 272.962 546.997ZM314.32 506.997C314.32 502.579 310.617 498.997 306.049 498.997C301.481 498.997 297.777 502.579 297.777 506.997C297.777 511.415 301.481 514.997 306.049 514.997C310.617 514.997 314.32 511.415 314.32 506.997Z" fill="black"/>
<path fill-rule="evenodd" clip-rule="evenodd" d="M306.049 434.997C300.338 434.997 295.709 430.52 295.709 424.997C295.709 419.474 300.338 414.997 306.049 414.997C311.759 414.997 316.388 419.474 316.388 424.997C322.099 424.997 326.728 429.474 326.728 434.997C326.728 440.52 322.099 444.997 316.388 444.997C310.678 444.997 306.049 440.52 306.049 434.997ZM264.691 474.997C258.98 474.997 254.351 470.52 254.351 464.997C254.351 459.474 258.98 454.997 264.691 454.997C270.401 454.997 275.03 459.474 275.03 464.997C280.741 464.997 285.37 469.474 285.37 474.997C285.37 480.52 280.741 484.997 275.03 484.997C269.32 484.997 264.691 480.52 264.691 474.997ZM272.962 464.997C272.962 460.579 269.259 456.997 264.691 456.997C260.123 456.997 256.419 460.579 256.419 464.997C256.419 469.415 260.123 472.997 264.691 472.997C269.259 472.997 272.962 469.415 272.962 464.997ZM314.32 424.997C314.32 420.579 310.617 416.997 306.049 416.997C301.481 416.997 297.777 420.579 297.777 424.997C297.777 429.415 301.481 432.997 306.049 432.997C310.617 432.997 314.32 429.415 314.32 424.997Z" fill="black"/>
<path fill-rule="evenodd" clip-rule="evenodd" d="M306.049 352.997C300.338 352.997 295.709 348.52 295.709 342.997C295.709 337.474 300.338 332.997 306.049 332.997C311.759 332.997 316.388 337.474 316.388 342.997C322.099 342.997 326.728 347.474 326.728 352.997C326.728 358.52 322.099 362.997 316.388 362.997C310.678 362.997 306.049 358.52 306.049 352.997ZM264.691 392.997C258.98 392.997 254.351 388.52 254.351 382.997C254.351 377.474 258.98 372.997 264.691 372.997C270.401 372.997 275.03 377.474 275.03 382.997C280.741 382.997 285.37 387.474 285.37 392.997C285.37 398.52 280.741 402.997 275.03 402.997C269.32 402.997 264.691 398.52 264.691 392.997ZM272.962 382.997C272.962 378.579 269.259 374.997 264.691 374.997C260.123 374.997 256.419 378.579 256.419 382.997C256.419 387.415 260.123 390.997 264.691 390.997C269.259 390.997 272.962 387.415 272.962 382.997ZM314.32 342.997C314.32 338.579 310.617 334.997 306.049 334.997C301.481 334.997 297.777 338.579 297.777 342.997C297.777 347.415 301.481 350.997 306.049 350.997C310.617 350.997 314.32 347.415 314.32 342.997Z" fill="black"/>
<path fill-rule="evenodd" clip-rule="evenodd" d="M306.049 270.997C300.338 270.997 295.709 266.52 295.709 260.997C295.709 255.474 300.338 250.997 306.049 250.997C311.759 250.997 316.388 255.474 316.388 260.997C322.099 260.997 326.728 265.474 326.728 270.997C326.728 276.52 322.099 280.997 316.388 280.997C310.678 280.997 306.049 276.52 306.049 270.997ZM264.691 310.997C258.98 310.997 254.351 306.52 254.351 300.997C254.351 295.474 258.98 290.997 264.691 290.997C270.401 290.997 275.03 295.474 275.03 300.997C280.741 300.997 285.37 305.474 285.37 310.997C285.37 316.52 280.741 320.997 275.03 320.997C269.32 320.997 264.691 316.52 264.691 310.997ZM272.962 300.997C272.962 296.579 269.259 292.997 264.691 292.997C260.123 292.997 256.419 296.579 256.419 300.997C256.419 305.415 260.123 308.997 264.691 308.997C269.259 308.997 272.962 305.415 272.962 300.997ZM314.32 260.997C314.32 256.579 310.617 252.997 306.049 252.997C301.481 252.997 297.777 256.579 297.777 260.997C297.777 265.415 301.481 268.997 306.049 268.997C310.617 268.997 314.32 265.415 314.32 260.997Z" fill="black"/>
<path fill-rule="evenodd" clip-rule="evenodd" d="M306.049 188.997C300.338 188.997 295.709 184.52 295.709 178.997C295.709 173.474 300.338 168.997 306.049 168.997C311.759 168.997 316.388 173.474 316.388 178.997C322.099 178.997 326.728 183.474 326.728 188.997C326.728 194.52 322.099 198.997 316.388 198.997C310.678 198.997 306.049 194.52 306.049 188.997ZM264.691 228.997C258.98 228.997 254.351 224.52 254.351 218.997C254.351 213.474 258.98 208.997 264.691 208.997C270.401 208.997 275.03 213.474 275.03 218.997C280.741 218.997 285.37 223.474 285.37 228.997C285.37 234.52 280.741 238.997 275.03 238.997C269.32 238.997 264.691 234.52 264.691 228.997ZM272.962 218.997C272.962 214.579 269.259 210.997 264.691 210.997C260.123 210.997 256.419 214.579 256.419 218.997C256.419 223.415 260.123 226.997 264.691 226.997C269.259 226.997 272.962 223.415 272.962 218.997ZM314.32 178.997C314.32 174.579 310.617 170.997 306.049 170.997C301.481 170.997 297.777 174.579 297.777 178.997C297.777 183.415 301.481 186.997 306.049 186.997C310.617 186.997 314.32 183.415 314.32 178.997Z" fill="black"/>
<path fill-rule="evenodd" clip-rule="evenodd" d="M306.049 106.997C300.338 106.997 295.709 102.52 295.709 96.9966C295.709 91.4736 300.338 86.9966 306.049 86.9966C311.759 86.9966 316.388 91.4736 316.388 96.9966C322.099 96.9966 326.728 101.474 326.728 106.997C326.728 112.52 322.099 116.997 316.388 116.997C310.678 116.997 306.049 112.52 306.049 106.997ZM264.691 146.997C258.98 146.997 254.351 142.52 254.351 136.997C254.351 131.474 258.98 126.997 264.691 126.997C270.401 126.997 275.03 131.474 275.03 136.997C280.741 136.997 285.37 141.474 285.37 146.997C285.37 152.52 280.741 156.997 275.03 156.997C269.32 156.997 264.691 152.52 264.691 146.997ZM272.962 136.997C272.962 132.579 269.259 128.997 264.691 128.997C260.123 128.997 256.419 132.579 256.419 136.997C256.419 141.415 260.123 144.997 264.691 144.997C269.259 144.997 272.962 141.415 272.962 136.997ZM314.32 96.9966C314.32 92.5786 310.617 88.9966 306.049 88.9966C301.481 88.9966 297.777 92.5786 297.777 96.9966C297.777 101.415 301.481 104.997 306.049 104.997C310.617 104.997 314.32 101.415 314.32 96.9966Z" fill="black"/>
<path fill-rule="evenodd" clip-rule="evenodd" d="M51.6966 24.9966C45.986 24.9966 41.3571 20.5196 41.3571 14.9966C41.3571 9.47358 45.986 4.99658 51.6966 4.99658C57.4071 4.99658 62.0361 9.47358 62.0361 14.9966C67.7466 14.9966 72.3756 19.4736 72.3756 24.9966C72.3756 30.5196 67.7466 34.9966 62.0361 34.9966C56.3256 34.9966 51.6966 30.5196 51.6966 24.9966ZM10.3385 64.9966C4.62802 64.9966 -0.000976562 60.5196 -0.000976562 54.9966C-0.000976562 49.4736 4.62802 44.9966 10.3385 44.9966C16.049 44.9966 20.678 49.4736 20.678 54.9966C26.3885 54.9966 31.0175 59.4736 31.0175 64.9966C31.0175 70.5196 26.3885 74.9966 20.678 74.9966C14.9675 74.9966 10.3385 70.5196 10.3385 64.9966ZM18.6101 54.9966C18.6101 50.5786 14.9065 46.9966 10.3385 46.9966C5.77054 46.9966 2.06692 50.5786 2.06692 54.9966C2.06692 59.4146 5.77054 62.9966 10.3385 62.9966C14.9065 62.9966 18.6101 59.4146 18.6101 54.9966ZM59.9682 14.9966C59.9682 10.5786 56.2646 6.99658 51.6966 6.99658C47.1286 6.99658 43.425 10.5786 43.425 14.9966C43.425 19.4146 47.1286 22.9966 51.6966 22.9966C56.2646 22.9966 59.9682 19.4146 59.9682 14.9966Z" fill="black"/>
<path fill-rule="evenodd" clip-rule="evenodd" d="M136.481 24.9966C130.77 24.9966 126.141 20.5196 126.141 14.9966C126.141 9.47358 130.77 4.99658 136.481 4.99658C142.191 4.99658 146.82 9.47358 146.82 14.9966C152.531 14.9966 157.16 19.4736 157.16 24.9966C157.16 30.5196 152.531 34.9966 146.82 34.9966C141.11 34.9966 136.481 30.5196 136.481 24.9966ZM95.1227 64.9966C89.4122 64.9966 84.7832 60.5196 84.7832 54.9966C84.7832 49.4736 89.4122 44.9966 95.1227 44.9966C100.833 44.9966 105.462 49.4736 105.462 54.9966C111.173 54.9966 115.802 59.4736 115.802 64.9966C115.802 70.5196 111.173 74.9966 105.462 74.9966C99.7517 74.9966 95.1227 70.5196 95.1227 64.9966ZM103.394 54.9966C103.394 50.5786 99.6907 46.9966 95.1227 46.9966C90.5547 46.9966 86.8511 50.5786 86.8511 54.9966C86.8511 59.4146 90.5547 62.9966 95.1227 62.9966C99.6907 62.9966 103.394 59.4146 103.394 54.9966ZM144.752 14.9966C144.752 10.5786 141.049 6.99658 136.481 6.99658C131.913 6.99658 128.209 10.5786 128.209 14.9966C128.209 19.4146 131.913 22.9966 136.481 22.9966C141.049 22.9966 144.752 19.4146 144.752 14.9966Z" fill="black"/>
<path fill-rule="evenodd" clip-rule="evenodd" d="M221.264 24.9966C215.554 24.9966 210.925 20.5196 210.925 14.9966C210.925 9.47358 215.554 4.99658 221.264 4.99658C226.975 4.99658 231.604 9.47358 231.604 14.9966C237.314 14.9966 241.943 19.4736 241.943 24.9966C241.943 30.5196 237.314 34.9966 231.604 34.9966C225.893 34.9966 221.264 30.5196 221.264 24.9966ZM179.906 64.9966C174.196 64.9966 169.567 60.5196 169.567 54.9966C169.567 49.4736 174.196 44.9966 179.906 44.9966C185.617 44.9966 190.246 49.4736 190.246 54.9966C195.956 54.9966 200.585 59.4736 200.585 64.9966C200.585 70.5196 195.956 74.9966 190.246 74.9966C184.535 74.9966 179.906 70.5196 179.906 64.9966ZM188.178 54.9966C188.178 50.5786 184.474 46.9966 179.906 46.9966C175.338 46.9966 171.635 50.5786 171.635 54.9966C171.635 59.4146 175.338 62.9966 179.906 62.9966C184.474 62.9966 188.178 59.4146 188.178 54.9966ZM229.536 14.9966C229.536 10.5786 225.832 6.99658 221.264 6.99658C216.696 6.99658 212.993 10.5786 212.993 14.9966C212.993 19.4146 216.696 22.9966 221.264 22.9966C225.832 22.9966 229.536 19.4146 229.536 14.9966Z" fill="black"/>
<path fill-rule="evenodd" clip-rule="evenodd" d="M306.049 24.9966C300.338 24.9966 295.709 20.5196 295.709 14.9966C295.709 9.47358 300.338 4.99658 306.049 4.99658C311.759 4.99658 316.388 9.47358 316.388 14.9966C322.099 14.9966 326.728 19.4736 326.728 24.9966C326.728 30.5196 322.099 34.9966 316.388 34.9966C310.678 34.9966 306.049 30.5196 306.049 24.9966ZM264.691 64.9966C258.98 64.9966 254.351 60.5196 254.351 54.9966C254.351 49.4736 258.98 44.9966 264.691 44.9966C270.401 44.9966 275.03 49.4736 275.03 54.9966C280.741 54.9966 285.37 59.4736 285.37 64.9966C285.37 70.5196 280.741 74.9966 275.03 74.9966C269.32 74.9966 264.691 70.5196 264.691 64.9966ZM272.962 54.9966C272.962 50.5786 269.259 46.9966 264.691 46.9966C260.123 46.9966 256.419 50.5786 256.419 54.9966C256.419 59.4146 260.123 62.9966 264.691 62.9966C269.259 62.9966 272.962 59.4146 272.962 54.9966ZM314.32 14.9966C314.32 10.5786 310.617 6.99658 306.049 6.99658C301.481 6.99658 297.777 10.5786 297.777 14.9966C297.777 19.4146 301.481 22.9966 306.049 22.9966C310.617 22.9966 314.32 19.4146 314.32 14.9966Z" fill="black"/>
</g>
<defs>
<clipPath id="clip0_495_5897">
<rect width="566" height="335" fill="white" transform="translate(-0.000976562 566.997) rotate(-90)"/>
</clipPath>
</defs>
</svg>
